# xmcd
#
# Track frame offsets:
#	150
#	16279
#	32862
#	49264
#
# Disc length: 1229 seconds
#
# Revision: 0
# Processed by: cddbd v1.4PL0 Copyright (c) Steve Scherf et al.
# Submitted via: dBpowerAMP V4.0
#
DISCID=2c04cb04
DTITLE=Mungo Jerry - Lady Rose 21th Century
DYEAR=2003
DGENRE=Blues
TTITLE0=Lady Rose 21th Century
TTITLE1=Partyland
TTITLE2=Feels Like I'm In Love
TTITLE3=Open Up - Live In Vlotho
EXTD=A Great new version from Lady Rose, including Open Up Live In Vlotho performed by\nMungo Jerry Bluesband and "Feels Like I'm In Love" earlier releised by Kellie Mary.\nRob Kamphues
EXTT0=
EXTT1=
EXTT2=
EXTT3=
PLAYORDER=
